<svg width="140" height="57" viewBox="0 0 140 57" fill="none" xmlns="http://www.w3.org/2000/svg">
    <path d="M13.56 39.4C11.1333 39.4 8.94667 38.92 7 37.96C5.08 36.9733 3.57333 35.6267 2.48 33.92C1.38667 32.1867 0.84 30.2267 0.84 28.04C0.84 25.8533 1.38667 23.9067 2.48 22.2C3.57333 20.4667 5.08 19.12 7 18.16C8.94667 17.2 11.1333 16.72 13.56 16.72C16.0133 16.72 18.2 17.2 20.12 18.16C22.0667 19.12 23.5733 20.4667 24.64 22.2C25.7333 23.9067 26.28 25.8533 26.28 28.04C26.28 30.2267 25.7333 32.1867 24.64 33.92C23.5733 35.6267 22.0667 36.9733 20.12 37.96C18.2 38.92 16.0133 39.4 13.56 39.4ZM13.56 32.36C14.6 32.36 15.4533 31.9867 16.12 31.24C16.7867 30.4667 17.12 29.4 17.12 28.04C17.12 26.68 16.7867 25.6267 16.12 24.88C15.4533 24.1333 14.6 23.76 13.56 23.76C12.52 23.76 11.6667 24.1333 11 24.88C10.3333 25.6267 10 26.68 10 28.04C10 29.4 10.3333 30.4667 11 31.24C11.6667 31.9867 12.52 32.36 13.56 32.36ZM38.4694 39.4C36.6027 39.4 34.7627 39.2 32.9494 38.8C31.136 38.4 29.6694 37.88 28.5494 37.24L31.0294 31.28C32.0427 31.8933 33.2427 32.3733 34.6294 32.72C36.016 33.0667 37.3627 33.24 38.6694 33.24C39.7094 33.24 40.4294 33.16 40.8294 33C41.256 32.8133 41.4694 32.5467 41.4694 32.2C41.4694 31.8533 41.2027 31.6133 40.6694 31.48C40.1627 31.3467 39.3227 31.2133 38.1494 31.08C36.3627 30.8667 34.8427 30.6 33.5894 30.28C32.336 29.9333 31.2294 29.28 30.2694 28.32C29.336 27.36 28.8694 25.9867 28.8694 24.2C28.8694 22.7867 29.296 21.52 30.1494 20.4C31.0027 19.28 32.2694 18.3867 33.9494 17.72C35.656 17.0533 37.696 16.72 40.0694 16.72C41.7227 16.72 43.336 16.88 44.9094 17.2C46.5094 17.4933 47.8694 17.9333 48.9894 18.52L46.5094 24.48C44.5894 23.4133 42.4827 22.88 40.1894 22.88C38.216 22.88 37.2294 23.2267 37.2294 23.92C37.2294 24.2667 37.496 24.52 38.0294 24.68C38.5627 24.8133 39.4027 24.9467 40.5494 25.08C42.336 25.2933 43.8427 25.5733 45.0694 25.92C46.3227 26.2667 47.416 26.92 48.3494 27.88C49.3094 28.84 49.7894 30.2133 49.7894 32C49.7894 33.36 49.3627 34.6 48.5094 35.72C47.656 36.84 46.376 37.7333 44.6694 38.4C42.9627 39.0667 40.896 39.4 38.4694 39.4Z"
          fill="white"/>
    <path d="M82.2866 16.72C84.9266 16.72 87.0332 17.5333 88.6066 19.16C90.2066 20.7867 91.0066 23.24 91.0066 26.52V39H81.9666V28.08C81.9666 25.5733 81.1532 24.32 79.5266 24.32C78.6732 24.32 77.9799 24.64 77.4466 25.28C76.9399 25.92 76.6866 26.9333 76.6866 28.32V39H67.6466V28.08C67.6466 25.5733 66.8332 24.32 65.2066 24.32C64.3532 24.32 63.6599 24.64 63.1266 25.28C62.6199 25.92 62.3666 26.9333 62.3666 28.32V39H53.3266V17.12H61.9266V19.16C63.5532 17.5333 65.6199 16.72 68.1266 16.72C69.5932 16.72 70.9132 17 72.0866 17.56C73.2599 18.0933 74.2199 18.92 74.9666 20.04C75.8466 18.9733 76.9132 18.16 78.1666 17.6C79.4199 17.0133 80.7932 16.72 82.2866 16.72Z"
          fill="#BD0246"/>
    <path d="M7 37.96L6.54293 38.8494L6.55029 38.8532L6.55771 38.8569L7 37.96ZM2.48 33.92L1.63418 34.4535L1.63797 34.4594L2.48 33.92ZM2.48 22.2L3.32205 22.7394L3.3258 22.7335L2.48 22.2ZM7 18.16L6.5577 17.2631L6.55279 17.2656L7 18.16ZM20.12 18.16L19.6728 19.0544L19.6777 19.0569L20.12 18.16ZM24.64 22.2L23.7883 22.7241L23.7931 22.7318L23.798 22.7394L24.64 22.2ZM24.64 33.92L23.7942 33.3865L23.792 33.39L24.64 33.92ZM20.12 37.96L20.5672 38.8544L20.5721 38.852L20.12 37.96ZM16.12 31.24L16.8659 31.906L16.8717 31.8995L16.8774 31.8929L16.12 31.24ZM11 31.24L10.2426 31.8929L10.2483 31.8995L10.2541 31.906L11 31.24ZM13.56 38.4C11.2684 38.4 9.23588 37.9476 7.44229 37.0631L6.55771 38.8569C8.65745 39.8924 10.9982 40.4 13.56 40.4V38.4ZM7.45707 37.0706C5.68344 36.1591 4.31395 34.9289 3.32203 33.3806L1.63797 34.4594C2.83271 36.3244 4.47656 37.7875 6.54293 38.8494L7.45707 37.0706ZM3.3258 33.3865C2.34003 31.8237 1.84 30.0511 1.84 28.04H-0.16C-0.16 30.4023 0.433304 32.5496 1.6342 34.4535L3.3258 33.3865ZM1.84 28.04C1.84 26.0288 2.34001 24.2723 3.32203 22.7394L1.63797 21.6606C0.433322 23.541 -0.16 25.6778 -0.16 28.04H1.84ZM3.3258 22.7335C4.31699 21.1621 5.68243 19.9368 7.44721 19.0544L6.55279 17.2656C4.47757 18.3032 2.82968 19.7712 1.6342 21.6665L3.3258 22.7335ZM7.44229 19.0569C9.23588 18.1724 11.2684 17.72 13.56 17.72V15.72C10.9982 15.72 8.65745 16.2276 6.55771 17.2631L7.44229 19.0569ZM13.56 17.72C15.8804 17.72 17.9103 18.1732 19.6728 19.0544L20.5672 17.2656C18.4897 16.2268 16.1463 15.72 13.56 15.72V17.72ZM19.6777 19.0569C21.4673 19.9394 22.827 21.1618 23.7883 22.7241L25.4917 21.6759C24.3197 19.7715 22.6661 18.3006 20.5623 17.2631L19.6777 19.0569ZM23.798 22.7394C24.78 24.2723 25.28 26.0288 25.28 28.04H27.28C27.28 25.6778 26.6867 23.541 25.482 21.6606L23.798 22.7394ZM25.28 28.04C25.28 30.0511 24.78 31.8237 23.7942 33.3865L25.4858 34.4535C26.6867 32.5496 27.28 30.4023 27.28 28.04H25.28ZM23.792 33.39C22.83 34.9292 21.4663 36.1565 19.6679 37.068L20.5721 38.852C22.667 37.7902 24.3167 36.3241 25.488 34.45L23.792 33.39ZM19.6728 37.0656C17.9103 37.9468 15.8804 38.4 13.56 38.4V40.4C16.1463 40.4 18.4897 39.8932 20.5672 38.8544L19.6728 37.0656ZM13.56 33.36C14.8722 33.36 16.0013 32.8744 16.8659 31.906L15.3741 30.574C14.9054 31.0989 14.3278 31.36 13.56 31.36V33.36ZM16.8774 31.8929C17.7461 30.8852 18.12 29.5592 18.12 28.04H16.12C16.12 29.2408 15.8272 30.0481 15.3626 30.5871L16.8774 31.8929ZM18.12 28.04C18.12 26.5232 17.7471 25.2009 16.8659 24.214L15.3741 25.546C15.8262 26.0525 16.12 26.8368 16.12 28.04H18.12ZM16.8659 24.214C16.0013 23.2456 14.8722 22.76 13.56 22.76V24.76C14.3278 24.76 14.9054 25.0211 15.3741 25.546L16.8659 24.214ZM13.56 22.76C12.2478 22.76 11.1187 23.2456 10.2541 24.214L11.7459 25.546C12.2146 25.0211 12.7922 24.76 13.56 24.76V22.76ZM10.2541 24.214C9.37291 25.2009 9 26.5232 9 28.04H11C11 26.8368 11.2938 26.0525 11.7459 25.546L10.2541 24.214ZM9 28.04C9 29.5592 9.37386 30.8852 10.2426 31.8929L11.7574 30.5871C11.2928 30.0481 11 29.2408 11 28.04H9ZM10.2541 31.906C11.1187 32.8744 12.2478 33.36 13.56 33.36V31.36C12.7922 31.36 12.2146 31.0989 11.7459 30.574L10.2541 31.906ZM32.9494 38.8L32.734 39.7765L32.9494 38.8ZM28.5494 37.24L27.6261 36.8558L27.2871 37.6705L28.0532 38.1082L28.5494 37.24ZM31.0294 31.28L31.5472 30.4245L30.5527 29.8226L30.1061 30.8958L31.0294 31.28ZM34.6294 32.72L34.8719 31.7499L34.8719 31.7499L34.6294 32.72ZM40.8294 33L41.2008 33.9285L41.2156 33.9226L41.2302 33.9162L40.8294 33ZM40.6694 31.48L40.4149 32.4471L40.4268 32.4501L40.6694 31.48ZM38.1494 31.08L38.0308 32.073L38.0365 32.0736L38.1494 31.08ZM33.5894 30.28L33.3228 31.2438L33.3324 31.2465L33.342 31.2489L33.5894 30.28ZM30.2694 28.32L29.5523 29.0171L29.5623 29.0271L30.2694 28.32ZM30.1494 20.4L29.3539 19.794L29.3539 19.794L30.1494 20.4ZM33.9494 17.72L33.5855 16.7885L33.5805 16.7905L33.9494 17.72ZM44.9094 17.2L44.7101 18.1799L44.7195 18.1819L44.729 18.1836L44.9094 17.2ZM48.9894 18.52L49.9126 18.9042L50.2643 18.059L49.4534 17.6342L48.9894 18.52ZM46.5094 24.48L46.0237 25.3542L47.0025 25.8979L47.4326 24.8642L46.5094 24.48ZM38.0294 24.68L37.742 25.6378L37.7643 25.6445L37.7868 25.6501L38.0294 24.68ZM40.5494 25.08L40.6679 24.087L40.6649 24.0867L40.5494 25.08ZM45.0694 25.92L44.7974 26.8823L44.8028 26.8838L45.0694 25.92ZM48.3494 27.88L47.6323 28.5771L47.6423 28.5871L48.3494 27.88ZM48.5094 35.72L49.3048 36.326L49.3048 36.326L48.5094 35.72ZM44.6694 38.4L45.0332 39.3315L45.0332 39.3315L44.6694 38.4ZM38.4694 38.4C36.6748 38.4 34.907 38.2078 33.1648 37.8235L32.734 39.7765C34.6184 40.1922 36.5306 40.4 38.4694 40.4V38.4ZM33.1648 37.8235C31.4106 37.4365 30.0487 36.945 29.0455 36.3718L28.0532 38.1082C29.29 38.815 30.8615 39.3635 32.734 39.7765L33.1648 37.8235ZM29.4726 37.6242L31.9526 31.6642L30.1061 30.8958L27.6261 36.8558L29.4726 37.6242ZM30.5116 32.1355C31.6259 32.81 32.9225 33.3241 34.3868 33.6901L34.8719 31.7499C33.5629 31.4226 32.4595 30.9767 31.5472 30.4245L30.5116 32.1355ZM34.3868 33.6901C35.8455 34.0548 37.2737 34.24 38.6694 34.24V32.24C37.4517 32.24 36.1866 32.0785 34.8719 31.7499L34.3868 33.6901ZM38.6694 34.24C39.7063 34.24 40.6031 34.1675 41.2008 33.9285L40.458 32.0715C40.2556 32.1525 39.7124 32.24 38.6694 32.24V34.24ZM41.2302 33.9162C41.8714 33.6356 42.4694 33.0848 42.4694 32.2H40.4694C40.4694 32.1824 40.4724 32.1524 40.4849 32.1165C40.4974 32.0804 40.5146 32.0527 40.5285 32.0353C40.5414 32.0192 40.5462 32.0185 40.5314 32.029C40.516 32.0398 40.4841 32.0595 40.4286 32.0838L41.2302 33.9162ZM42.4694 32.2C42.4694 31.7321 42.274 31.3188 41.9383 31.0167C41.6358 30.7444 41.2602 30.5969 40.9119 30.5099L40.4268 32.4501C40.5125 32.4716 40.5665 32.4922 40.5965 32.5062C40.6267 32.5203 40.6219 32.5226 40.6004 32.5033C40.5764 32.4817 40.5388 32.4392 40.509 32.3738C40.4789 32.3075 40.4694 32.2451 40.4694 32.2H42.4694ZM40.9239 30.5129C40.3417 30.3597 39.4393 30.2201 38.2623 30.0864L38.0365 32.0736C39.2061 32.2065 39.9837 32.3336 40.4149 32.4471L40.9239 30.5129ZM38.2679 30.0871C36.5093 29.8771 35.035 29.617 33.8368 29.3111L33.342 31.2489C34.6505 31.583 36.2161 31.8563 38.0308 32.0729L38.2679 30.0871ZM33.856 29.3162C32.7766 29.0177 31.8199 28.4563 30.9765 27.6129L29.5623 29.0271C30.6389 30.1037 31.8954 30.849 33.3228 31.2438L33.856 29.3162ZM30.9864 27.6229C30.2886 26.9052 29.8694 25.8159 29.8694 24.2H27.8694C27.8694 26.1575 28.3835 27.8148 29.5524 29.0171L30.9864 27.6229ZM29.8694 24.2C29.8694 23.0047 30.2247 21.9512 30.9448 21.006L29.3539 19.794C28.3674 21.0888 27.8694 22.5686 27.8694 24.2H29.8694ZM30.9448 21.006C31.6609 20.0662 32.7601 19.2678 34.3182 18.6495L33.5805 16.7905C31.7787 17.5055 30.3446 18.4938 29.3539 19.794L30.9448 21.006ZM34.3132 18.6515C35.8753 18.0413 37.7855 17.72 40.0694 17.72V15.72C37.6065 15.72 35.4368 16.0654 33.5855 16.7885L34.3132 18.6515ZM40.0694 17.72C41.6578 17.72 43.2043 17.8737 44.7101 18.1799L45.1087 16.2201C43.4678 15.8863 41.7877 15.72 40.0694 15.72V17.72ZM44.729 18.1836C46.2569 18.4637 47.5158 18.877 48.5254 19.4058L49.4534 17.6342C48.223 16.9897 46.7618 16.523 45.0897 16.2164L44.729 18.1836ZM48.0661 18.1358L45.5861 24.0958L47.4326 24.8642L49.9126 18.9042L48.0661 18.1358ZM46.995 23.6058C44.9198 22.4529 42.6449 21.88 40.1894 21.88V23.88C42.3206 23.88 44.259 24.3737 46.0237 25.3542L46.995 23.6058ZM40.1894 21.88C39.1715 21.88 38.2943 21.9659 37.6379 22.1965C37.3052 22.3134 36.96 22.491 36.6889 22.7767C36.3959 23.0856 36.2294 23.4811 36.2294 23.92H38.2294C38.2294 24.0122 38.1862 24.1044 38.1398 24.1533C38.1154 24.179 38.1402 24.1399 38.3009 24.0835C38.6312 23.9674 39.234 23.88 40.1894 23.88V21.88ZM36.2294 23.92C36.2294 24.3856 36.4221 24.7924 36.7406 25.095C37.0311 25.371 37.3956 25.5339 37.742 25.6378L38.3167 23.7222C38.2293 23.696 38.1724 23.6716 38.1384 23.6541C38.1043 23.6364 38.103 23.6306 38.1181 23.645C38.1352 23.6613 38.1671 23.6977 38.1932 23.7564C38.2198 23.8163 38.2294 23.8747 38.2294 23.92H36.2294ZM37.7868 25.6501C38.3864 25.8 39.2803 25.9392 40.4339 26.0733L40.6649 24.0867C39.5251 23.9542 38.739 23.8266 38.2719 23.7099L37.7868 25.6501ZM40.4308 26.0729C42.1849 26.2824 43.6368 26.5543 44.7974 26.8823L45.3413 24.9577C44.0487 24.5924 42.4872 24.3043 40.6679 24.0871L40.4308 26.0729ZM44.8028 26.8838C45.8797 27.1817 46.819 27.7405 47.6324 28.5771L49.0664 27.1829C48.0131 26.0995 46.7657 25.3516 45.336 24.9562L44.8028 26.8838ZM47.6423 28.5871C48.3611 29.3059 48.7894 30.3916 48.7894 32H50.7894C50.7894 30.0351 50.2577 28.3741 49.0565 27.1729L47.6423 28.5871ZM48.7894 32C48.7894 33.1329 48.4396 34.1615 47.7139 35.114L49.3048 36.326C50.2858 35.0385 50.7894 33.5871 50.7894 32H48.7894ZM47.7139 35.114C47.0007 36.0501 45.8917 36.849 44.3055 37.4685L45.0332 39.3315C46.8604 38.6177 48.3114 37.6299 49.3048 36.326L47.7139 35.114ZM44.3055 37.4685C42.7457 38.0778 40.8097 38.4 38.4694 38.4V40.4C40.9824 40.4 43.1797 40.0555 45.0332 39.3315L44.3055 37.4685ZM88.6066 19.16L87.8877 19.8552L87.8936 19.8612L88.6066 19.16ZM91.0066 39V40H92.0066V39H91.0066ZM81.9666 39H80.9666V40H81.9666V39ZM77.4466 25.28L76.6783 24.6398L76.6703 24.6495L76.6625 24.6593L77.4466 25.28ZM76.6866 39V40H77.6866V39H76.6866ZM67.6466 39H66.6466V40H67.6466V39ZM63.1266 25.28L62.3583 24.6398L62.3503 24.6495L62.3425 24.6593L63.1266 25.28ZM62.3666 39V40H63.3666V39H62.3666ZM53.3266 39H52.3266V40H53.3266V39ZM53.3266 17.12V16.12H52.3266V17.12H53.3266ZM61.9266 17.12H62.9266V16.12H61.9266V17.12ZM61.9266 19.16H60.9266V21.5742L62.6337 19.8671L61.9266 19.16ZM72.0866 17.56L71.6558 18.4625L71.6643 18.4665L71.6728 18.4704L72.0866 17.56ZM74.9666 20.04L74.1345 20.5947L74.8812 21.7148L75.7379 20.6764L74.9666 20.04ZM78.1666 17.6L78.5745 18.513L78.5825 18.5094L78.5905 18.5057L78.1666 17.6ZM82.2866 17.72C84.7046 17.72 86.5344 18.456 87.8878 19.8552L89.3254 18.4648C87.5321 16.6107 85.1486 15.72 82.2866 15.72V17.72ZM87.8936 19.8612C89.2423 21.2323 90.0066 23.3873 90.0066 26.52H92.0066C92.0066 23.0927 91.1709 20.341 89.3195 18.4588L87.8936 19.8612ZM90.0066 26.52V39H92.0066V26.52H90.0066ZM91.0066 38H81.9666V40H91.0066V38ZM82.9666 39V28.08H80.9666V39H82.9666ZM82.9666 28.08C82.9666 26.7505 82.7567 25.5805 82.1954 24.7156C81.5857 23.7761 80.6429 23.32 79.5266 23.32V25.32C80.0369 25.32 80.3141 25.4906 80.5177 25.8044C80.7698 26.1928 80.9666 26.9029 80.9666 28.08H82.9666ZM79.5266 23.32C78.3848 23.32 77.4069 23.7655 76.6783 24.6398L78.2148 25.9202C78.5529 25.5145 78.9617 25.32 79.5266 25.32V23.32ZM76.6625 24.6593C75.9475 25.5624 75.6866 26.851 75.6866 28.32H77.6866C77.6866 27.0156 77.9323 26.2776 78.2306 25.9007L76.6625 24.6593ZM75.6866 28.32V39H77.6866V28.32H75.6866ZM76.6866 38H67.6466V40H76.6866V38ZM68.6466 39V28.08H66.6466V39H68.6466ZM68.6466 28.08C68.6466 26.7505 68.4367 25.5805 67.8754 24.7156C67.2657 23.7761 66.3229 23.32 65.2066 23.32V25.32C65.7169 25.32 65.9941 25.4906 66.1977 25.8044C66.4498 26.1928 66.6466 26.9029 66.6466 28.08H68.6466ZM65.2066 23.32C64.0648 23.32 63.0869 23.7655 62.3583 24.6398L63.8948 25.9202C64.2329 25.5145 64.6417 25.32 65.2066 25.32V23.32ZM62.3425 24.6593C61.6275 25.5624 61.3666 26.851 61.3666 28.32H63.3666C63.3666 27.0156 63.6123 26.2776 63.9106 25.9007L62.3425 24.6593ZM61.3666 28.32V39H63.3666V28.32H61.3666ZM62.3666 38H53.3266V40H62.3666V38ZM54.3266 39V17.12H52.3266V39H54.3266ZM53.3266 18.12H61.9266V16.12H53.3266V18.12ZM60.9266 17.12V19.16H62.9266V17.12H60.9266ZM62.6337 19.8671C64.0551 18.4457 65.8589 17.72 68.1266 17.72V15.72C65.3809 15.72 63.0514 16.6209 61.2195 18.4529L62.6337 19.8671ZM68.1266 17.72C69.4634 17.72 70.6333 17.9745 71.6558 18.4625L72.5173 16.6575C71.1931 16.0255 69.7231 15.72 68.1266 15.72V17.72ZM71.6728 18.4704C72.6685 18.923 73.4865 19.6227 74.1345 20.5947L75.7986 19.4853C74.9533 18.2173 73.8513 17.2637 72.5004 16.6496L71.6728 18.4704ZM75.7379 20.6764C76.5205 19.7278 77.4631 19.0096 78.5745 18.513L77.7586 16.687C76.3634 17.3104 75.1726 18.2188 74.1952 19.4036L75.7379 20.6764ZM78.5905 18.5057C79.7009 17.9859 80.928 17.72 82.2866 17.72V15.72C80.6585 15.72 79.1389 16.0407 77.7426 16.6943L78.5905 18.5057Z"
          fill="#BD0246"/>
    <rect y="49" width="120" height="8" rx="4" fill="#BD0246"/>
    <path d="M105.8 16.72C109.64 16.72 112.573 17.5867 114.6 19.32C116.627 21.0267 117.64 23.6667 117.64 27.24V39H109.24V36.12C108.2 38.3067 106.133 39.4 103.04 39.4C101.307 39.4 99.8267 39.1067 98.6 38.52C97.4 37.9067 96.48 37.0933 95.84 36.08C95.2267 35.04 94.92 33.88 94.92 32.6C94.92 30.44 95.7467 28.8 97.4 27.68C99.0533 26.56 101.56 26 104.92 26H108.56C108.267 24.2933 106.893 23.44 104.44 23.44C103.453 23.44 102.453 23.6 101.44 23.92C100.427 24.2133 99.56 24.6267 98.84 25.16L95.96 19.2C97.2133 18.4267 98.72 17.8267 100.48 17.4C102.267 16.9467 104.04 16.72 105.8 16.72ZM105.76 33.96C106.4 33.96 106.973 33.7867 107.48 33.44C107.987 33.0933 108.36 32.5733 108.6 31.88V30.36H106.36C104.52 30.36 103.6 30.9733 103.6 32.2C103.6 32.7067 103.787 33.1333 104.16 33.48C104.56 33.8 105.093 33.96 105.76 33.96Z"
          fill="white"/>
    <path d="M114.6 19.32L113.95 20.08L113.956 20.0849L114.6 19.32ZM117.64 39V40H118.64V39H117.64ZM109.24 39H108.24V40H109.24V39ZM109.24 36.12H110.24L108.337 35.6905L109.24 36.12ZM98.6 38.52L98.1449 39.4104L98.1566 39.4164L98.1685 39.4221L98.6 38.52ZM95.84 36.08L94.9786 36.588L94.9864 36.6011L94.9945 36.614L95.84 36.08ZM97.4 27.68L96.8392 26.8521L96.8392 26.8521L97.4 27.68ZM108.56 26V27H109.747L109.546 25.8306L108.56 26ZM101.44 23.92L101.718 24.8806L101.73 24.8772L101.741 24.8736L101.44 23.92ZM98.84 25.16L97.9396 25.5951L98.465 26.6823L99.4352 25.9636L98.84 25.16ZM95.96 19.2L95.4349 18.349L94.6671 18.8227L95.0596 19.6351L95.96 19.2ZM100.48 17.4L100.716 18.3719L100.726 18.3693L100.48 17.4ZM107.48 33.44L106.915 32.6147L106.915 32.6147L107.48 33.44ZM108.6 31.88L109.545 32.2071L109.6 32.0482V31.88H108.6ZM108.6 30.36H109.6V29.36H108.6V30.36ZM104.16 33.48L103.48 34.2128L103.507 34.2379L103.535 34.2609L104.16 33.48ZM105.8 17.72C109.505 17.72 112.17 18.5574 113.95 20.08L115.25 18.56C112.977 16.6159 109.775 15.72 105.8 15.72V17.72ZM113.956 20.0849C115.685 21.5411 116.64 23.8528 116.64 27.24H118.64C118.64 23.4805 117.568 20.5122 115.244 18.5551L113.956 20.0849ZM116.64 27.24V39H118.64V27.24H116.64ZM117.64 38H109.24V40H117.64V38ZM110.24 39V36.12H108.24V39H110.24ZM108.337 35.6905C107.511 37.426 105.876 38.4 103.04 38.4V40.4C106.391 40.4 108.889 39.1873 110.143 36.5495L108.337 35.6905ZM103.04 38.4C101.416 38.4 100.092 38.1249 99.0315 37.6179L98.1685 39.4221C99.5617 40.0884 101.197 40.4 103.04 40.4V38.4ZM99.0551 37.6296C97.9945 37.0875 97.2182 36.3894 96.6855 35.546L94.9945 36.614C95.7418 37.7972 96.8055 38.7258 98.1449 39.4104L99.0551 37.6296ZM96.7014 35.572C96.1843 34.6953 95.92 33.7125 95.92 32.6H93.92C93.92 34.0475 94.269 35.3847 94.9786 36.588L96.7014 35.572ZM95.92 32.6C95.92 30.7397 96.6076 29.4246 97.9608 28.5079L96.8392 26.8521C94.8857 28.1754 93.92 30.1403 93.92 32.6H95.92ZM97.9608 28.5079C99.3702 27.5532 101.638 27 104.92 27V25C101.482 25 98.7365 25.5668 96.8392 26.8521L97.9608 28.5079ZM104.92 27H108.56V25H104.92V27ZM109.546 25.8306C109.354 24.7182 108.786 23.8198 107.838 23.2306C106.931 22.6671 105.764 22.44 104.44 22.44V24.44C105.57 24.44 106.316 24.6396 106.782 24.9294C107.207 25.1935 107.472 25.5751 107.574 26.1694L109.546 25.8306ZM104.44 22.44C103.344 22.44 102.242 22.618 101.139 22.9664L101.741 24.8736C102.665 24.582 103.563 24.44 104.44 24.44V22.44ZM101.162 22.9594C100.054 23.2801 99.0756 23.741 98.2448 24.3564L99.4352 25.9636C100.044 25.5123 100.799 25.1466 101.718 24.8806L101.162 22.9594ZM99.7404 24.7249L96.8604 18.7649L95.0596 19.6351L97.9396 25.5951L99.7404 24.7249ZM96.4851 20.051C97.6311 19.344 99.0353 18.7792 100.716 18.3718L100.244 16.4281C98.4047 16.8741 96.7956 17.5094 95.4349 18.349L96.4851 20.051ZM100.726 18.3693C102.436 17.9354 104.127 17.72 105.8 17.72V15.72C103.953 15.72 102.097 15.9579 100.234 16.4307L100.726 18.3693ZM105.76 34.96C106.592 34.96 107.364 34.7308 108.045 34.2653L106.915 32.6147C106.582 32.8425 106.208 32.96 105.76 32.96V34.96ZM108.045 34.2653C108.761 33.7754 109.249 33.0623 109.545 32.2071L107.655 31.5529C107.471 32.0843 107.213 32.4113 106.915 32.6147L108.045 34.2653ZM109.6 31.88V30.36H107.6V31.88H109.6ZM108.6 29.36H106.36V31.36H108.6V29.36ZM106.36 29.36C105.36 29.36 104.436 29.5209 103.735 29.9879C102.963 30.5028 102.6 31.2954 102.6 32.2H104.6C104.6 31.878 104.697 31.7506 104.845 31.6521C105.064 31.5058 105.52 31.36 106.36 31.36V29.36ZM102.6 32.2C102.6 32.9865 102.904 33.6781 103.48 34.2128L104.84 32.7472C104.67 32.5886 104.6 32.4269 104.6 32.2H102.6ZM103.535 34.2609C104.16 34.7606 104.935 34.96 105.76 34.96V32.96C105.251 32.96 104.96 32.8394 104.785 32.6991L103.535 34.2609Z"
          fill="#BD0246"/>
</svg>
