<svg width="49" height="49" viewBox="0 0 49 49" fill="none" xmlns="http://www.w3.org/2000/svg">
    <rect x="0.474609" y="0.333374" width="48" height="48" rx="5" fill="#BD0246"/>
    <g clip-path="url(#clip0_91_1156)">
        <path d="M39.5057 17.6265C38.8735 16.9287 38.0042 16.4634 37.0559 16.4634H24.8857C24.4905 16.4634 24.0954 16.7736 24.0954 17.2388C24.0954 17.704 24.4905 18.0142 24.8857 18.0142H37.0559C37.53 18.0142 38.0042 18.2468 38.3203 18.5569C38.6364 18.9446 38.7945 19.4098 38.6364 19.875L37.9252 23.7519H29.2322C28.837 23.7519 28.4419 24.062 28.4419 24.5272C28.4419 24.9924 28.837 25.3026 29.2322 25.3026H37.6881L36.9769 29.0243C36.8978 29.5671 36.3446 29.9548 35.7914 29.9548H20.6182C20.065 29.9548 19.5908 29.5671 19.4328 29.0243L16.3507 12.1989C16.2717 11.8113 15.9556 11.5787 15.5604 11.5787H9.47533C9.0802 11.5787 8.68506 11.8888 8.68506 12.354C8.68506 12.8192 9.0802 13.1294 9.47533 13.1294H14.9282L17.9313 29.412C18.0893 30.4975 18.8796 31.2729 19.9069 31.583C19.5118 32.1258 19.1957 32.8236 19.1957 33.599C19.1957 35.5374 20.7762 37.0881 22.7519 37.0881C24.7276 37.0881 26.3082 35.5374 26.3082 33.599C26.3082 32.9011 26.0711 32.2033 25.6759 31.6606H30.4966C30.1015 32.2033 29.8644 32.9011 29.8644 33.599C29.8644 35.5374 31.4449 37.0881 33.4206 37.0881C35.3963 37.0881 36.9769 35.5374 36.9769 33.599C36.9769 32.8236 36.7398 32.1258 36.3446 31.583C37.372 31.3504 38.2413 30.4975 38.4784 29.412L40.217 20.2627C40.375 19.3323 40.1379 18.4019 39.5057 17.6265ZM24.7276 33.5214C24.7276 34.6069 23.8583 35.4598 22.7519 35.4598C21.6455 35.4598 20.7762 34.6069 20.7762 33.5214C20.7762 32.4359 21.6455 31.583 22.7519 31.583C23.8583 31.583 24.7276 32.4359 24.7276 33.5214ZM33.4996 35.4598C32.3933 35.4598 31.524 34.6069 31.524 33.5214C31.524 32.4359 32.3933 31.583 33.4996 31.583C34.606 31.583 35.4753 32.4359 35.4753 33.5214C35.4753 34.6069 34.606 35.4598 33.4996 35.4598Z"
              fill="white"/>
    </g>
    <defs>
        <clipPath id="clip0_91_1156">
            <rect width="33" height="26" fill="white" transform="translate(7.97461 11.3334)"/>
        </clipPath>
    </defs>
</svg>
