<svg width="26" height="27" viewBox="0 0 26 27" fill="none" xmlns="http://www.w3.org/2000/svg">
    <path d="M10.9702 0.333008C5.44542 0.333008 0.96582 4.84149 0.96582 10.4018C0.96582 15.9622 5.44542 20.4707 10.9702 20.4707C13.0947 20.4707 15.0649 19.8037 16.6845 18.6677L24.2501 26.2809C24.3184 26.3496 24.429 26.3496 24.4938 26.2856L25.9191 24.8511C25.985 24.7848 25.9792 24.6711 25.9144 24.6059L18.4476 17.091C20.02 15.313 20.9745 12.9699 20.9745 10.4018C20.9746 4.84149 16.495 0.333008 10.9702 0.333008ZM10.9702 19.2861C6.09514 19.2861 2.1428 15.3083 2.1428 10.4018C2.1428 5.49536 6.0951 1.5176 10.9702 1.5176C15.8453 1.5176 19.7976 5.49536 19.7976 10.4018C19.7976 15.3083 15.8453 19.2861 10.9702 19.2861Z"
          fill="white"/>
</svg>
