<svg width="32" height="27" viewBox="0 0 32 27" fill="none" xmlns="http://www.w3.org/2000/svg">
    <path d="M31.0056 6.62608C30.3734 5.92825 29.5041 5.46303 28.5558 5.46303H16.3855C15.9904 5.46303 15.5953 5.77318 15.5953 6.23839C15.5953 6.70361 15.9904 7.01376 16.3855 7.01376H28.5558C29.0299 7.01376 29.5041 7.24637 29.8202 7.55651C30.1363 7.94419 30.2944 8.40941 30.1363 8.87463L29.4251 12.7514H20.732C20.3369 12.7514 19.9418 13.0616 19.9418 13.5268C19.9418 13.992 20.3369 14.3022 20.732 14.3022H29.188L28.4767 18.0239C28.3977 18.5667 27.8445 18.9543 27.2913 18.9543H12.1181C11.5649 18.9543 11.0907 18.5667 10.9327 18.0239L7.85059 1.19854C7.77156 0.810856 7.45545 0.578247 7.06032 0.578247H0.97521C0.580073 0.578247 0.184937 0.888392 0.184937 1.35361C0.184937 1.81883 0.580073 2.12897 0.97521 2.12897H6.4281L9.43114 18.4116C9.58919 19.4971 10.3795 20.2725 11.4068 20.5826C11.0117 21.1254 10.6956 21.8232 10.6956 22.5985C10.6956 24.537 12.2761 26.0877 14.2518 26.0877C16.2275 26.0877 17.808 24.537 17.808 22.5985C17.808 21.9007 17.571 21.2029 17.1758 20.6601H21.9965C21.6013 21.2029 21.3643 21.9007 21.3643 22.5985C21.3643 24.537 22.9448 26.0877 24.9205 26.0877C26.8962 26.0877 28.4767 24.537 28.4767 22.5985C28.4767 21.8232 28.2396 21.1254 27.8445 20.5826C28.8719 20.35 29.7412 19.4971 29.9782 18.4116L31.7168 9.26231C31.8749 8.33187 31.6378 7.40144 31.0056 6.62608ZM16.2275 22.521C16.2275 23.6065 15.3582 24.4594 14.2518 24.4594C13.1454 24.4594 12.2761 23.6065 12.2761 22.521C12.2761 21.4355 13.1454 20.5826 14.2518 20.5826C15.3582 20.5826 16.2275 21.4355 16.2275 22.521ZM24.9995 24.4594C23.8931 24.4594 23.0238 23.6065 23.0238 22.521C23.0238 21.4355 23.8931 20.5826 24.9995 20.5826C26.1059 20.5826 26.9752 21.4355 26.9752 22.521C26.9752 23.6065 26.1059 24.4594 24.9995 24.4594Z"
          fill="#313131"/>
</svg>