<svg width="27" height="25" viewBox="0 0 27 25" fill="none" xmlns="http://www.w3.org/2000/svg">
    <path d="M19.9746 0.100952C17.2666 0.100952 15.2174 1.69022 13.4746 3.35095C11.8139 1.58864 9.68269 0.100952 6.97461 0.100952C3.16072 0.100952 0.474609 3.38018 0.474609 6.95603C0.474609 8.87433 1.2603 10.2564 2.12072 11.5539L12.2225 23.6651C13.3568 24.8651 13.5705 24.8651 14.7047 23.6651L24.8293 11.5539C25.8408 10.2564 26.4746 8.87433 26.4746 6.95603C26.4746 3.38022 23.7885 0.100952 19.9746 0.100952ZM23.2246 11.2176L13.4746 22.8509L3.72461 11.1696C2.55869 9.54872 2.09961 8.45511 2.09961 6.95603C2.09961 4.16264 4.0943 1.64795 6.97461 1.62437C9.34388 1.60487 12.0292 4.02449 13.4746 5.84856C14.8819 4.08787 17.6053 1.62437 19.9746 1.62437C22.7785 1.62437 24.8496 4.16264 24.8496 6.95603C24.8496 8.45511 24.4864 9.62995 23.2246 11.2176Z"
          fill="#313131"/>
</svg>