<svg width="27" height="27" viewBox="0 0 27 27" fill="none" xmlns="http://www.w3.org/2000/svg">
    <g clip-path="url(#clip0_91_1052)">
        <path d="M13.4804 13.3359C14.984 13.3346 16.4407 12.812 17.6023 11.8571C18.7638 10.9023 19.5584 9.57427 19.8506 8.09931C20.1429 6.62435 19.9147 5.09369 19.2051 3.76807C18.4954 2.44245 17.3481 1.40388 15.9585 0.82927C14.569 0.254665 13.0233 0.179572 11.5846 0.616784C10.1459 1.054 8.90335 1.97647 8.06851 3.22705C7.23367 4.47764 6.85823 5.97898 7.00614 7.47533C7.15405 8.97167 7.81617 10.3705 8.87969 11.4334C9.48344 12.0379 10.2007 12.5172 10.9902 12.8437C11.7798 13.1702 12.626 13.3375 13.4804 13.3359ZM9.92407 3.28024C10.7468 2.45744 11.8293 1.94537 12.9872 1.83127C14.1452 1.71718 15.3069 2.00812 16.2743 2.65452C17.2418 3.30092 17.9552 4.26278 18.293 5.37622C18.6307 6.48965 18.572 7.68576 18.1267 8.76073C17.6815 9.83571 16.8772 10.723 15.8511 11.2715C14.8249 11.82 13.6403 11.9957 12.4992 11.7687C11.358 11.5416 10.3308 10.9259 9.59271 10.0265C8.8546 9.12703 8.45121 7.99947 8.45126 6.83593C8.45044 6.17546 8.58013 5.52133 8.83288 4.91113C9.08563 4.30093 9.45646 3.74669 9.92407 3.28024Z"
              fill="#313131"/>
        <path d="M3.22461 19.7904C3.22461 17.4432 5.1274 15.5404 7.47461 15.5404H19.4746C21.8218 15.5404 23.7246 17.4432 23.7246 19.7904V25.5859H3.22461V19.7904Z"
              stroke="#313131" stroke-width="1.5"/>
    </g>
    <defs>
        <clipPath id="clip0_91_1052">
            <rect width="26" height="26" fill="white" transform="translate(0.474609 0.335938)"/>
        </clipPath>
    </defs>
</svg>